<svg xmlns="http://www.w3.org/2000/svg" viewBox="0 0 400.7 259.8" enable-background="new 0 0 400.7 259.8" id="contact-lamp">
	<radialGradient id="a" cx="168.697" cy="67.951" r="289.024" gradientTransform="translate(0 -.011)" gradientUnits="userSpaceOnUse"><stop offset="0" stop-color="#FBB217" stop-opacity=".4"/><stop offset=".647" stop-color="#FFFCF7" stop-opacity="0"/></radialGradient>
	<path id="light"  fill-rule="evenodd" clip-rule="evenodd" fill="url(#a)" d="M140 30.4h38.1l222.6 102.8-264 126.6-4.6-204.7z"/>
	<g>
		<path fill-rule="evenodd" clip-rule="evenodd" fill="#C2C1C1" d="M27.4 142.9l13.6-65.6-7.4-1.5-6.1 29.7v14.2l9-43.3 1.8.4-10.7 51.9v14.2zm-13.5 28.1l7.4 1.5 6.1-29.7v-14.2l-9 43.3-1.8-.4 10.7-51.9v-14.2l-13.4 65.6zM142.8 32.4l-2.8-7-47 18.9v3.1l48-19.3.7 1.7-48.7 19.5v3.1l49.8-20zm-49.8 11.9l-49.8 20 2.8 7 47-18.9v-3.1l-48 19.3-.7-1.7 48.7-19.5v-3.1z"/>
		<path fill-rule="evenodd" clip-rule="evenodd" fill="#FBB217" d="M153.2 48.7c4.1 0 7.4-3.3 7.4-7.4 0-4.1-3.3-7.4-7.4-7.4-4.1 0-7.4 3.3-7.4 7.4 0 4.1 3.3 7.4 7.4 7.4z"/>
		<path fill-rule="evenodd" clip-rule="evenodd" fill="#AE615C" d="M130.7 6.4c1.3 0 2.4-1.1 2.4-2.4 0-1.3-1.1-2.4-2.4-2.4-1.3 0-2.4 1.1-2.4 2.4.1 1.3 1.1 2.4 2.4 2.4z"/>
		<path fill-rule="evenodd" clip-rule="evenodd" fill="#D3D3D3" stroke="#ABABAB" stroke-width="1.456" stroke-miterlimit="10" d="M130.7 4c2.4-1.4 4.9-2.5 7.5-3.2l9.9 12.1c9.9-.4 20.5 5.6 27.2 16.1-7.2 3.6-14.6 7.7-22.1 12.2-7.5 4.5-14.5 9.2-21.1 13.8-6.2-10.8-6.5-23-1.6-31.5l-6.1-14.4c1.9-1.9 4-3.6 6.3-5.1z"/><circle fill-rule="evenodd" clip-rule="evenodd" fill="#989898" cx="38.6" cy="70.2" r="8"/>
		<path fill="#ABABAB" d="M129.5 21c3.2-4.6 11.3-9.3 17-10.1l1.7 2c-5.5.3-15.4 5.9-17.6 10.6l-1.1-2.5z"/><path fill-rule="evenodd" clip-rule="evenodd" fill="#E95C46" d="M38.6 76.1c3.2 0 5.9-2.6 5.9-5.9 0-3.2-2.6-5.9-5.9-5.9-3.2 0-5.9 2.6-5.9 5.9 0 3.2 2.7 5.9 5.9 5.9z"/>
		<path fill-rule="evenodd" clip-rule="evenodd" fill="#D3D3D3" stroke="#ABABAB" stroke-width="1.456" stroke-miterlimit="10" d="M19.7 156.8c10.5 0 19 8.5 19 19h-38c0-10.5 8.5-19 19-19z"/>
	</g>
</svg>